<?xml version="1.0" standalone="no"?>
<!DOCTYPE svg PUBLIC "-//W3C//DTD SVG 20010904//EN"
 "http://www.w3.org/TR/2001/REC-SVG-20010904/DTD/svg10.dtd">
<svg version="1.0" xmlns="http://www.w3.org/2000/svg"
 width="150.000000pt" height="150.000000pt" viewBox="0 0 150.000000 150.000000"
 preserveAspectRatio="xMidYMid meet">
<metadata>
Created by potrace 1.11, written by Peter Selinger 2001-2013
</metadata>
<g transform="translate(0.000000,150.000000) scale(0.100000,-0.100000)"
fill="#000000" stroke="none">
<path d="M668 1395 c-2 -2 -22 -6 -46 -10 -113 -17 -258 -100 -351 -201 -53
-58 -124 -178 -136 -229 -29 -126 -33 -159 -30 -230 4 -83 6 -93 24 -162 24
-88 100 -212 179 -291 34 -34 142 -100 206 -125 84 -34 127 -41 256 -40 88 0
118 5 184 28 77 27 155 68 206 110 112 92 209 254 226 377 13 95 15 114 15
123 -7 166 -46 277 -139 400 -89 118 -244 215 -382 241 -38 6 -207 14 -212 9z"/>
</g>
</svg>
